<svg xmlns="http://www.w3.org/2000/svg" viewBox="0 0 100 115" role="img" aria-label="Introduction to Social Research Methodology">
  <!-- icon: lucide microscope · white hex, #8b0000 border + icon (matches _placeholder.svg) -->
  <polygon points="50,3 95,29 95,86 50,112 5,86 5,29"
           fill="#ffffff" stroke="#8b0000" stroke-width="6" stroke-linejoin="round"/>
  <g transform="translate(29.5,37) scale(1.71)" fill="none" stroke="#8b0000"
     stroke-width="2" stroke-linecap="round" stroke-linejoin="round">
    <path d="M6 18h8" />
    <path d="M3 22h18" />
    <path d="M14 22a7 7 0 1 0 0-14h-1" />
    <path d="M9 14h2" />
    <path d="M9 12a2 2 0 0 1-2-2V6h6v4a2 2 0 0 1-2 2Z" />
    <path d="M12 6V3a1 1 0 0 0-1-1H9a1 1 0 0 0-1 1v3" />
  </g>
</svg>
