<svg xmlns="http://www.w3.org/2000/svg" viewBox="0 0 100 115" role="img" aria-label="Course">
  <!-- Placeholder hexsticker: white background, dark-red (#8b0000) border + content.
       Drop a real per-course sticker at assets/teaching/<slug>.(svg|png|jpg|webp)
       to override this (sync-teaching.py prefers a matching file if present). -->
  <polygon points="50,3 95,29 95,86 50,112 5,86 5,29"
           fill="#ffffff" stroke="#8b0000" stroke-width="6" stroke-linejoin="round"/>
  <g transform="translate(29.5,37) scale(1.71)" fill="none" stroke="#8b0000"
     stroke-width="2" stroke-linecap="round" stroke-linejoin="round">
    <path d="M21.42 10.922a1 1 0 0 0-.019-1.838L12.83 5.18a2 2 0 0 0-1.66 0L2.6 9.08a1 1 0 0 0 0 1.832l8.57 3.908a2 2 0 0 0 1.66 0z"/>
    <path d="M22 10v6"/>
    <path d="M6 12.5V16a6 3 0 0 0 12 0v-3.5"/>
  </g>
</svg>
