<svg xmlns="http://www.w3.org/2000/svg" viewBox="0 0 100 115" role="img" aria-label="Dziennikarstwo danych">
  <!-- icon: lucide newspaper · white hex, #8b0000 border + icon (matches _placeholder.svg) -->
  <polygon points="50,3 95,29 95,86 50,112 5,86 5,29"
           fill="#ffffff" stroke="#8b0000" stroke-width="6" stroke-linejoin="round"/>
  <g transform="translate(29.5,37) scale(1.71)" fill="none" stroke="#8b0000"
     stroke-width="2" stroke-linecap="round" stroke-linejoin="round">
    <path d="M15 18h-5" />
    <path d="M18 14h-8" />
    <path d="M4 22h16a2 2 0 0 0 2-2V4a2 2 0 0 0-2-2H8a2 2 0 0 0-2 2v16a2 2 0 0 1-4 0v-9a2 2 0 0 1 2-2h2" />
    <rect width="8" height="4" x="10" y="6" rx="1" />
  </g>
</svg>
